<svg xmlns="http://www.w3.org/2000/svg" width="24" height="24" viewBox="0 0 24 24" fill="none" stroke-linecap="round" stroke-linejoin="round"><defs><linearGradient id="eg173" gradientUnits="userSpaceOnUse" x1="0" y1="2" x2="0" y2="22"><stop offset="0" stop-color="#F3D9AE"/><stop offset=".5" stop-color="#C99767"/><stop offset="1" stop-color="#7E5C3B"/></linearGradient></defs><g stroke="url(#eg173)" stroke-width="1.35"><path d="M12 10.91C10.28 9.74 7.94 9.43 4.98 9.74v10.37c2.96 -0.31 5.3 0 7.02 1.17 1.72 -1.17 4.06 -1.48 7.02 -1.17V9.74c-2.96 -0.31 -5.3 0 -7.02 1.17z"/><path d="M12 10.91v10.37"/><path d="M9.62 2.2h4.75M9.62 8.82h4.75"/><path d="M10.27 2.2c0 1.73 1.3 2.23 1.3 3.31s-1.3 1.58 -1.3 3.31"/><path d="M13.73 2.2c0 1.73 -1.3 2.23 -1.3 3.31s1.3 1.58 1.3 3.31"/></g><g stroke="url(#eg173)" stroke-width=".7" opacity=".85"><path d="M7.16 13.72h2.81M7.16 16.06h2.81M7.16 18.4h2.81M14.03 13.72h2.81M14.03 16.06h2.81M14.03 18.4h2.81"/><path d="M11.14 3.78h1.73L12 4.79z"/></g></svg>