<svg xmlns="http://www.w3.org/2000/svg" width="48" height="48" viewBox="0 0 48 48" fill="none" stroke-linecap="round" stroke-linejoin="round"><defs>
<linearGradient id="sg264" gradientUnits="userSpaceOnUse" x1="0" y1="2" x2="0" y2="46"><stop offset="0" stop-color="#F3D9AE"/><stop offset=".45" stop-color="#C99767"/><stop offset="1" stop-color="#6E4F32"/></linearGradient>
<radialGradient id="sf264" cx="50%" cy="38%" r="65%"><stop offset="0" stop-color="#2E271F"/><stop offset="1" stop-color="#110F0C"/></radialGradient></defs>
<polygon points="24.00,2.00 43.05,13.00 43.05,35.00 24.00,46.00 4.95,35.00 4.95,13.00" fill="url(#sf264)" stroke="url(#sg264)" stroke-width="1.3"/>
<polygon points="24.00,4.60 40.80,14.30 40.80,33.70 24.00,43.40 7.20,33.70 7.20,14.30" stroke="url(#sg264)" stroke-width=".5" opacity=".55"/>
<path d="M22.6 4.6L24 3.2l1.4 1.4L24 6z" fill="url(#sg264)" stroke="none"/>
<g transform="translate(13 13.2) scale(.917)"><g stroke="url(#sg264)" stroke-width="1.45"><path d="M10.28 4.81A8.4 8.4 0 1 0 18.72 15.35A6.9 6.9 0 0 1 10.28 4.81z"/><path d="M17.4 4.8L18.11 6.63L20.06 6.73L18.54 7.97L19.05 9.87L17.4 8.8L15.75 9.87L16.26 7.97L14.74 6.73L16.69 6.63z"/></g><g stroke="url(#sg264)" stroke-width=".75" opacity=".85"><path d="M7.98 18.82A6.2 6.2 0 0 1 4.98 10.58"/><path d="M19.6 11.1L19.98 12.07L21.03 12.14L20.22 12.8L20.48 13.81L19.6 13.25L18.72 13.81L18.98 12.8L18.17 12.14L19.22 12.07z"/><circle cx="13.4" cy="3.4" r="0.55" fill="url(#sg264)" stroke="none"/></g></g></svg>