<svg xmlns="http://www.w3.org/2000/svg" width="24" height="24" viewBox="0 0 24 24" fill="none" stroke-linecap="round" stroke-linejoin="round"><defs><linearGradient id="eg253" gradientUnits="userSpaceOnUse" x1="0" y1="2" x2="0" y2="22"><stop offset="0" stop-color="#F3D9AE"/><stop offset=".5" stop-color="#C99767"/><stop offset="1" stop-color="#7E5C3B"/></linearGradient></defs><g stroke="url(#eg253)" stroke-width="1.35"><path d="M12 6.2L12 2.2M13.7 6.9L15.68 4.92M14.4 8.6L18.4 8.6M13.7 10.3L15.68 12.28M12 11L12 15M10.3 10.3L8.32 12.28M9.6 8.6L5.6 8.6M10.3 6.9L8.32 4.92"/><path d="M2.6 20.2h18.8"/></g><g stroke="url(#eg253)" stroke-width=".7" opacity=".85"><circle cx="12" cy="8.6" r="0.9" fill="url(#eg253)" stroke="none"/><circle cx="14.68" cy="2.13" r="0.55" fill="url(#eg253)" stroke="none"/><circle cx="18.47" cy="5.92" r="0.55" fill="url(#eg253)" stroke="none"/><circle cx="18.47" cy="11.28" r="0.55" fill="url(#eg253)" stroke="none"/><circle cx="14.68" cy="15.07" r="0.55" fill="url(#eg253)" stroke="none"/><circle cx="9.32" cy="15.07" r="0.55" fill="url(#eg253)" stroke="none"/><circle cx="5.53" cy="11.28" r="0.55" fill="url(#eg253)" stroke="none"/><circle cx="5.53" cy="5.92" r="0.55" fill="url(#eg253)" stroke="none"/><circle cx="9.32" cy="2.13" r="0.55" fill="url(#eg253)" stroke="none"/><path d="M12 18.4v-1.4M12 15.4v-.8"/></g></svg>