<svg xmlns="http://www.w3.org/2000/svg" width="24" height="24" viewBox="0 0 24 24" fill="none" stroke-linecap="round" stroke-linejoin="round"><defs><linearGradient id="eg259" gradientUnits="userSpaceOnUse" x1="0" y1="2" x2="0" y2="22"><stop offset="0" stop-color="#F3D9AE"/><stop offset=".5" stop-color="#C99767"/><stop offset="1" stop-color="#7E5C3B"/></linearGradient></defs><g stroke="url(#eg259)" stroke-width="1.35"><path d="M5.8 14.4L6.59 16.51L8.84 16.61L7.08 18.02L7.68 20.19L5.8 18.95L3.92 20.19L4.52 18.02L2.76 16.61L5.01 16.51z"/><path d="M11.6 8L12.54 10.51L15.21 10.63L13.12 12.29L13.83 14.87L11.6 13.4L9.37 14.87L10.08 12.29L7.99 10.63L10.66 10.51z"/><path d="M17.8 1.8L18.89 4.7L21.98 4.84L19.56 6.77L20.39 9.76L17.8 8.05L15.21 9.76L16.04 6.77L13.62 4.84L16.71 4.7z"/></g><g stroke="url(#eg259)" stroke-width=".7" opacity=".85"><path d="M3.2 22c3.8-.6 7.4-2.6 10-5.4M8 21.8c3.6-1.2 7-3.6 9.6-7"/></g></svg>