<svg xmlns="http://www.w3.org/2000/svg" width="48" height="48" viewBox="0 0 48 48" fill="none" stroke-linecap="round" stroke-linejoin="round"><defs>
<linearGradient id="sg196" gradientUnits="userSpaceOnUse" x1="0" y1="2" x2="0" y2="46"><stop offset="0" stop-color="#F3D9AE"/><stop offset=".45" stop-color="#C99767"/><stop offset="1" stop-color="#6E4F32"/></linearGradient>
<radialGradient id="sf196" cx="50%" cy="38%" r="65%"><stop offset="0" stop-color="#2E271F"/><stop offset="1" stop-color="#110F0C"/></radialGradient></defs>
<polygon points="24.00,2.00 43.05,13.00 43.05,35.00 24.00,46.00 4.95,35.00 4.95,13.00" fill="url(#sf196)" stroke="url(#sg196)" stroke-width="1.3"/>
<polygon points="24.00,4.60 40.80,14.30 40.80,33.70 24.00,43.40 7.20,33.70 7.20,14.30" stroke="url(#sg196)" stroke-width=".5" opacity=".55"/>
<path d="M22.6 4.6L24 3.2l1.4 1.4L24 6z" fill="url(#sg196)" stroke="none"/>
<g transform="translate(13 13.2) scale(.917)"><g stroke="url(#sg196)" stroke-width="1.45"><circle cx="14.6" cy="4.2" r="2"/><path d="M13.8 7.6l-2.4 5.8"/><path d="M13.4 8.4l-3 1.6-1.8 2.6M13.4 8.4l2.6 2.4 2.8-1"/><path d="M11.4 13.4l3.2 2.8-.8 4.8M11.4 13.4l-1.6 3.8-4.4 1.2"/></g><g stroke="url(#sg196)" stroke-width=".75" opacity=".85"></g></g></svg>